<?xml version="1.0" encoding="utf-8"?>
<!-- Generator: Adobe Illustrator 27.5.0, SVG Export Plug-In . SVG Version: 6.00 Build 0)  -->
<svg version="1.1" id="Layer_1" xmlns="http://www.w3.org/2000/svg" xmlns:xlink="http://www.w3.org/1999/xlink" x="0px" y="0px"
	 viewBox="0 0 800 800" style="enable-background:new 0 0 800 800;" xml:space="preserve">
<g>
	<path style="fill:#2C2C2C;" d="M633.386,652.894c-0.075-1.056-0.205-2.106-0.434-3.141c-0.07-0.182-0.137-0.365-0.207-0.549
		c-0.287-0.823-0.639-1.616-1.06-2.375c-0.511-0.971-1.317-1.795-2.015-2.637c-0.516-0.622-1.19-1.117-1.823-1.611
		c-0.846-0.657-1.638-1.277-2.523-1.859c-0.737-0.485-1.522-0.898-2.302-1.308c-1.73-0.907-3.563-1.626-5.363-2.373
		c-1.362-0.566-2.755-1.055-4.149-1.529c-3.219-1.098-6.508-1.989-9.804-2.822c-6.522-1.647-13.138-2.922-19.761-4.086
		c-7.144-1.256-14.323-2.285-21.512-3.245c-28.465-3.805-57.171-5.784-85.852-7.003c-14.792-0.631-29.594-1.053-44.4-1.256
		c-7.37-0.103-14.74-0.125-22.11-0.202c-3.595-0.038-7.191-0.063-10.787-0.078c-0.576-0.003-1.152-0.005-1.727-0.005
		c-1.244,0-2.487,0.01-3.732,0.048c-2.137,0.066-4.272,0.144-6.411,0.167c-29.792,0.318-59.578,1.372-89.307,3.332
		c-19.248,1.27-38.476,2.959-57.627,5.28c-1.285-1.218-3.255-2.16-5.05-2.019c-6.873,0.547-13.743,1.159-20.598,1.906
		c-7.505,0.817-15.007,1.823-22.41,3.322c-6.666,1.348-13.293,2.959-19.615,5.504c-2.736,1.1-5.469,2.253-7.961,3.846
		c-1.286,0.822-2.491,1.793-3.643,2.789c-1.142,0.987-2.048,2.272-2.886,3.509c-0.179,0.268-0.311,0.559-0.439,0.853
		c-0.398,0.904-0.829,1.783-1.095,2.731c-0.269,0.963-0.295,1.986-0.415,2.978c-0.033,0.261-0.007,0.525,0.019,0.785
		c0.087,0.879,0.203,1.961,0.422,2.896c0.195,0.837,0.898,2.246,1.075,2.653c0.542,1.239,1.48,2.236,2.304,3.296
		c0.42,0.542,0.943,1.004,1.466,1.446c1.102,0.931,2.273,1.812,3.483,2.604c2.371,1.552,5.066,2.63,7.674,3.699
		c5.782,2.372,11.845,3.989,17.917,5.421c6.758,1.593,13.595,2.856,20.442,4.001c14.566,2.439,29.257,4.19,43.95,5.667
		c14.391,1.445,28.823,2.448,43.264,3.209c14.813,0.78,29.636,1.26,44.464,1.591c14.797,0.33,29.596,0.533,44.397,0.586
		c29.782,0.104,59.552-0.389,89.3-1.875c14.665-0.732,29.325-1.791,43.954-3.049c14.38-1.235,28.748-2.651,43.061-4.524
		c12.483-1.635,24.957-3.522,37.232-6.359c5.695-1.317,11.354-2.872,16.793-5.026c2.917-1.155,5.791-2.425,8.385-4.203
		c1.421-0.975,2.743-2.066,3.857-3.376c0.627-0.737,1.206-1.518,1.711-2.342c0.084-0.138,0.161-0.279,0.234-0.424
		c0.181-0.23,0.354-0.483,0.522-0.768C632.903,655.931,633.475,654.114,633.386,652.894z"/>
	<g>
		<path style="fill:none;" d="M374.536,522.487c0.038,0.016,0.074,0.037,0.114,0.049
			C374.612,522.519,374.574,522.503,374.536,522.487L374.536,522.487z"/>
		<path style="fill:none;" d="M371.551,359.203c-0.005-0.004-0.009-0.008-0.014-0.011c-0.001-0.001-0.003-0.002-0.004-0.003
			C371.54,359.194,371.546,359.199,371.551,359.203z"/>
		<path style="fill:none;" d="M371.534,359.189c-0.002-0.001-0.003-0.003-0.005-0.004c-0.003-0.002-0.006-0.004-0.009-0.006
			C371.525,359.182,371.529,359.186,371.534,359.189z"/>
		<polygon style="fill:none;" points="453.165,275.049 453.171,275.053 453.162,275.046 		"/>
		<path style="fill:#B9121B;" d="M410.979,539.048c-0.281,0.148-0.562,0.291-0.85,0.42c-0.801,0.322-1.593,0.547-2.439,0.683
			c-1.576,0.166-3.167,0.172-4.744,0.334c-1.282,0.132-2.563,0.259-3.84,0.436c-1.826,0.254-3.624,0.634-5.379,1.204
			c-3.141,1.018-6.1,2.433-9.126,3.731c-1,0.404-1.975,0.717-3.048,0.87c-0.251,0.031-0.483,0.053-0.737,0.053
			c-0.005,0-0.007,0.005-0.005,0.009c0.959,1.336,2.443,2.073,3.954,2.601c2.088,0.73,4.469,0.881,6.663,0.909
			c2.462,0.031,5.028-0.394,7.354-1.19c0.956-0.327,1.89-0.782,2.804-1.218c1.395-0.664,2.663-1.423,3.919-2.318
			c0.992-0.709,1.972-1.449,2.875-2.269c1.263-1.145,2.121-2.625,2.606-4.248c0-0.004-0.004-0.007-0.007-0.007
			C410.981,539.047,410.98,539.047,410.979,539.048z"/>
		<path style="fill:#B9121B;" d="M392.226,538.766c2.603-0.952,4.995-2.413,6.758-4.576c0.982-1.206,1.763-2.648,2.212-4.137
			c0.001-0.004-0.003-0.007-0.007-0.007c-0.001,0-0.001,0-0.002,0c-0.435,0.26-0.876,0.496-1.335,0.713
			c-0.325,0.136-0.649,0.274-0.971,0.414c-3.548,1.396-7.314,1.663-11.03,2.372c-2,0.38-3.972,0.983-5.907,1.604
			c-0.916,0.294-1.828,0.594-2.747,0.874c-0.9,0.274-1.82,0.442-2.734,0.658c-0.071,0.014-0.142,0.031-0.213,0.051
			c-0.589,0.167-0.825,1.129-0.184,1.413c1.157,0.513,2.281,1.011,3.52,1.298c1.385,0.323,2.832,0.446,4.25,0.513
			C386.685,540.087,389.542,539.748,392.226,538.766z"/>
		<path style="fill:#B9121B;" d="M384.074,526.751c2.279-0.033,4.607-0.41,6.711-1.296c1.039-0.438,2.012-0.9,2.948-1.529
			c0.846-0.568,1.64-1.23,2.403-1.909c1.03-0.917,1.906-1.998,2.755-3.08c0.95-1.213,1.859-2.444,2.536-3.834
			c0.001-0.003-0.001-0.009-0.004-0.009c0,0-0.001,0-0.001,0c-1.015,0.398-2.066,0.704-3.117,0.989
			c-1.979,0.54-3.926,1.187-5.902,1.739c-1.428,0.398-2.872,0.716-4.324,1.016c-1.661,0.344-3.285,0.785-4.903,1.291
			c-1.418,0.441-2.832,0.881-4.26,1.287c-1.188,0.337-2.326,0.831-3.541,1.063c-0.248,0.023-0.491,0.031-0.741,0.015
			c-0.05-0.009-0.1-0.019-0.149-0.029c0.017,0.007,0.033,0.015,0.05,0.022l0,0c-0.079-0.034-0.153-0.077-0.223-0.129
			c-0.125-0.111-0.236-0.235-0.336-0.37c-0.039-0.059-0.078-0.118-0.117-0.177c-0.018-0.07-0.036-0.139-0.053-0.211
			c0-0.005-0.007-0.005-0.01-0.002c-0.65,0.895-0.174,1.956,0.526,2.637c1.036,1.009,2.632,1.426,3.989,1.777
			C380.203,526.503,382.116,526.781,384.074,526.751z M374.536,522.487L374.536,522.487c0.038,0.016,0.076,0.032,0.114,0.049
			C374.61,522.524,374.574,522.504,374.536,522.487z"/>
		<path style="fill:#B9121B;" d="M382.084,515.344c2.521,0.189,5.188-0.132,7.556-1.018c1.28-0.479,2.559-1.049,3.741-1.741
			c1.058-0.617,2.022-1.399,2.983-2.153c2.441-1.92,4.616-4.387,6.456-6.878c0.004-0.004,0-0.009-0.005-0.009
			c-2.766,0.241-5.54,0.297-8.308,0.561c-2.194,0.208-4.394,0.483-6.571,0.827c-2.111,0.335-4.17,0.89-6.201,1.551
			c-1.996,0.65-3.958,1.404-5.949,2.071c-1.796,0.603-3.65,1.086-5.485,1.553c-0.004,0.002-0.005,0.007-0.002,0.01
			c1.265,1.393,2.806,2.563,4.479,3.428C377.038,514.718,379.572,515.153,382.084,515.344z"/>
		<path style="fill:#B9121B;" d="M375.723,499.827c2.655,1.637,5.763,2.219,8.8,2.625c3.12,0.417,6.208,0.148,9.255-0.629
			c1.696-0.433,3.258-1.065,4.856-1.765c3.409-1.496,6.637-3.537,9.568-5.834c0.003-0.003,0-0.009-0.004-0.009
			c-1.684-0.016-3.36-0.207-5.035-0.349c-1.388-0.116-2.78-0.2-4.165-0.354c-2.552-0.287-5.123-0.436-7.691-0.459
			c-0.087-0.001-0.174-0.001-0.26-0.001c-2.59,0-5.145,0.298-7.7,0.71c-2.027,0.327-4.038,0.746-6.069,1.044
			c-2.206,0.257-4.451,0.39-6.669,0.353c-0.005,0-0.007,0.005-0.005,0.009C371.963,497.054,373.744,498.609,375.723,499.827z"/>
		<path style="fill:#B9121B;" d="M388.971,478.553c-1.319,0.132-2.634,0.254-3.947,0.452c-1.364,0.208-2.721,0.481-4.076,0.742
			c-2.519,0.485-5.031,0.942-7.509,1.618c-0.005,0-0.005,0.007-0.002,0.01c2.636,1.564,5.525,2.783,8.584,3.162
			c1.673,0.207,3.263,0.116,4.929-0.111c1.531-0.208,2.993-0.855,4.375-1.517c1.769-0.85,3.329-2.043,4.859-3.256
			c0.78-0.617,1.506-1.315,2.153-2.071c0.003-0.005,0-0.01-0.005-0.01c-0.478,0.107-0.957,0.182-1.441,0.256
			C394.253,478.088,391.608,478.291,388.971,478.553z"/>
		<path style="fill:#B9121B;" d="M398.888,463.191c-4.211-0.599-8.367-1.616-12.618-1.936c-2.019-0.153-4.053-0.219-6.077-0.243
			c-2.001-0.022-4.013,0.029-6.005-0.194c-0.817-0.113-1.677-0.243-2.431-0.557c-0.059-0.03-0.118-0.059-0.177-0.088
			c-0.001-0.001-0.002-0.001-0.003-0.001c-0.003,0-0.005,0.003-0.004,0.007c0.226,1.227,1.072,2.323,1.847,3.261
			c1.088,1.317,2.606,2.347,4.067,3.204c3.379,1.979,7.347,3.072,11.265,3.002c1.826-0.033,3.683-0.41,5.445-0.874
			c1.77-0.464,3.501-1.174,5.118-2.022c1.628-0.855,3.184-2.109,4.39-3.513c0.003-0.004,0-0.01-0.007-0.009
			c-0.106,0.014-0.212,0.028-0.318,0.043c0.01-0.002,0.021-0.004,0.033-0.005C401.927,463.44,400.368,463.363,398.888,463.191z"/>
		<path style="fill:#B9121B;" d="M398.38,443.785c-2.241-0.669-4.552-1.195-6.837-1.675c-3.603-0.758-7.452-0.801-10.917-2.144
			c-0.633-0.29-1.245-0.616-1.817-1.015c-0.578-0.485-1.121-1.016-1.678-1.525c-0.001,0-0.002-0.001-0.003-0.001
			c-0.003,0-0.007,0.002-0.007,0.006c-0.01,0.86,0.009,1.711,0.123,2.564c0.137,1.004,0.693,2.038,1.235,2.877
			c1.22,1.892,3.193,3.315,5.143,4.38c3.678,2.01,8.014,2.66,12.146,2.177c2.014-0.234,3.904-0.573,5.839-1.162
			c1.661-0.505,3.36-1.216,4.745-2.272c0.004-0.002,0.005-0.009,0-0.009c-1.515-0.229-2.957-0.745-4.427-1.154
			C400.74,444.502,399.56,444.137,398.38,443.785z"/>
		<path style="fill:#B9121B;" d="M420.407,422.921c0.005,0,0.01,0,0.015-0.001c-0.985,0.118-1.989,0.105-2.979,0.084
			c-1.932-0.043-3.848-0.001-5.771-0.192c-1.286-0.233-2.5-0.645-3.725-1.118c-1.548-0.598-3.105-1.143-4.719-1.536
			c-3.084-0.75-6.209-1.18-9.349-1.599c-1.965-0.281-3.831-0.67-5.674-1.428c-0.544-0.235-1.069-0.476-1.585-0.771
			c-0.001,0-0.002,0-0.003,0c-0.004,0-0.006,0.003-0.006,0.006c-0.049,3.775,2.231,7.035,5.078,9.311
			c0.978,0.784,1.988,1.512,3.047,2.177c1.181,0.742,2.422,1.293,3.706,1.831c2.363,0.992,4.856,1.407,7.41,1.531
			c1.353,0.064,2.665-0.101,4.003-0.299c1.218-0.179,2.406-0.745,3.492-1.298c1.59-0.81,2.966-2,4.25-3.225
			c1.136-1.082,2.264-2.193,3.132-3.508c0.003-0.005-0.002-0.009-0.007-0.009C420.617,422.893,420.513,422.907,420.407,422.921z"/>
		<path style="fill:#B9121B;" d="M406.828,397.033c-2.677-1.184-5.356-2.408-7.716-4.158c-1.028-0.836-1.878-1.759-2.713-2.793
			c-0.147-0.195-0.288-0.395-0.424-0.598c-0.002-0.001-0.004-0.002-0.005-0.002c-0.002,0-0.004,0.001-0.005,0.004
			c-0.38,1.555-0.4,3.129-0.047,4.691c0.41,1.821,1.386,3.525,2.561,4.955c1.239,1.508,2.795,2.78,4.482,3.756
			c1.965,1.134,4.187,1.696,6.418,1.968c3.765,0.462,7.79,0.014,11.206-1.722c0.005-0.002,0.003-0.009-0.002-0.009
			c-0.84-0.279-1.659-0.606-2.485-0.921c-0.413-0.176-0.828-0.348-1.245-0.515c-0.618-0.291-1.243-0.564-1.872-0.831
			c0.069,0.029,0.138,0.058,0.207,0.087C412.396,399.656,409.639,398.277,406.828,397.033z"/>
		<path style="fill:#B9121B;" d="M431.927,383.24c0.012,0.002,0.023,0.002,0.033,0.004c-0.498-0.08-0.965-0.252-1.43-0.442
			c-1.948-0.882-3.774-1.974-5.504-3.227c-2.001-1.452-3.909-3.044-6.046-4.298c-2.26-1.327-4.717-2.399-7.165-3.318
			c-2.156-0.81-4.446-1.371-6.72-1.715l-0.002,0c-0.003,0-0.005,0.003-0.005,0.007c0.831,2.544,1.972,4.91,3.509,7.106
			c1.868,2.669,4.243,5.186,7.188,6.661c2.901,1.452,6.19,2.226,9.434,1.928c1.404-0.127,2.715-0.504,4.034-0.989
			c1.065-0.389,2.116-0.879,2.938-1.675c0.004-0.004,0.002-0.009-0.003-0.009C432.101,383.261,432.014,383.25,431.927,383.24z"/>
		<path style="fill:#B9121B;" d="M441.216,361.401c-2.064-1.932-3.899-4.078-5.928-6.043c-2.423-2.347-5.296-4.182-7.982-6.21
			c-1.767-1.418-3.369-2.997-5.059-4.501c-0.001-0.001-0.003-0.002-0.004-0.002c-0.003,0-0.005,0.001-0.006,0.004
			c-0.422,1.734-0.679,3.473-0.493,5.256c0.233,2.229,0.975,4.27,2.052,6.232c1.079,1.967,2.57,3.824,4.237,5.322
			c1.982,1.781,4.319,3.025,6.795,3.961c2.104,0.796,4.542,0.985,6.784,1.077c1.491,0.063,2.978,0.056,4.465-0.064
			c0.005,0,0.009-0.005,0.005-0.009C444.475,364.732,442.921,362.996,441.216,361.401z"/>
		<path style="fill:#B9121B;" d="M462.114,343.947c0.005,0.007,0.011,0.014,0.016,0.021c-0.714-1.078-1.48-2.117-2.271-3.139
			c-1.695-2.327-3.54-4.519-5.693-6.436c-2.392-2.128-5-4.048-7.622-5.884c-2.184-1.531-4.392-3.046-6.732-4.328
			c-0.001-0.001-0.002-0.001-0.003-0.001c-0.002,0-0.004,0.003-0.004,0.005c-0.175,2.943,0.092,5.904,1.039,8.706
			c1.176,3.477,3.122,6.538,5.568,9.257c1.293,1.439,2.874,2.596,4.481,3.657c0.888,0.586,1.81,1.169,2.768,1.638
			c2.272,1.115,4.554,2.027,7,2.655c1.072,0.275,2.219,0.384,3.317,0.519c1.058,0.13,2.121,0.212,3.19,0.2
			c0.004,0,0.007-0.005,0.004-0.009c-1.183-1.591-2.31-3.218-3.53-4.781C463.15,345.321,462.637,344.631,462.114,343.947z"/>
		<path style="fill:#B9121B;" d="M467.468,318.39c-0.889-1.918-2.246-3.636-3.628-5.216c-1.927-2.201-4.258-4.098-6.746-5.626
			c-0.001,0-0.001,0-0.002,0c-0.003,0-0.007,0.003-0.007,0.006c0.031,2.889,0.469,5.786,1.312,8.55
			c0.615,2.021,1.433,4.064,2.592,5.841c2.418,3.716,5.815,6.962,9.621,9.236c0.003,0.002,0.009,0,0.007-0.005
			c-0.202-1.944-0.427-3.883-0.816-5.801C469.309,322.952,468.507,320.633,467.468,318.39z"/>
		<path style="fill:#B9121B;" d="M481.223,300.042c-2.021-1.968-4.397-3.542-6.979-4.665c-0.001,0-0.003-0.001-0.004-0.001
			c-0.003,0-0.005,0.002-0.005,0.006c-0.031,2.625,0.391,5.282,1.235,7.771c0.639,1.882,1.47,3.763,2.682,5.353
			c1.515,1.982,3.205,3.626,5.179,5.137c1.273,0.976,2.639,1.8,3.987,2.667c0.003,0.004,0.007,0,0.007-0.004
			c0.255-3.947-0.782-7.962-2.467-11.503C484.001,303.001,482.642,301.425,481.223,300.042z"/>
		<path style="fill:#B9121B;" d="M501.246,292.104c-1.451-2.196-3.301-3.973-5.426-5.502c-1.626-1.169-3.563-1.972-5.457-2.597
			l-0.001,0c-0.003,0-0.005,0.004-0.005,0.007c0.733,4.187,2.245,8.263,4.005,12.118c1.022,2.236,2.488,4.26,4.057,6.142
			c1.869,2.241,3.949,4.201,6.145,6.117c0.004,0.003,0.009,0,0.01-0.004c0.322-3.094,0.123-6.338-0.561-9.371
			C503.463,296.588,502.622,294.189,501.246,292.104z"/>
		<path style="fill:#B9121B;" d="M522.242,286.56c-0.669-1.689-1.414-3.343-2.305-4.927c-1.557-2.764-3.525-5.247-5.825-7.432
			c-0.001-0.001-0.003-0.002-0.004-0.002c-0.002,0-0.004,0.001-0.004,0.004c-1.489,5.057-1.876,10.362-1.216,15.573
			c0.281,2.605,0.858,5.054,1.836,7.492c0.445,1.108,0.905,2.212,1.413,3.292c0.566,1.203,1.234,2.353,1.793,3.558
			c0.153,0.564,0.542,1.079,1.022,1.36c1.041,0.61,2.332,0.221,2.957-0.775c1.006-1.604,1.223-3.471,1.461-5.306
			c0.137-1.048,0.255-2.106,0.292-3.164c0.089-2.67-0.137-5.395-0.808-7.985C522.703,287.674,522.461,287.111,522.242,286.56z"/>
		<path style="fill:#B9121B;" d="M536.181,276.698c-1.289-2.307-2.919-4.408-4.92-6.131c-0.002-0.002-0.003-0.002-0.005-0.002
			c-0.002,0-0.004,0.001-0.005,0.004c-0.123,0.702-0.211,1.408-0.298,2.115c-0.285,1.977-0.388,3.971-0.228,5.965
			c0.163,2.064,0.337,4.137,0.992,6.112c0.601,1.807,1.39,3.582,2.314,5.245c0.883,1.586,1.935,3.054,2.898,4.59
			c0.002,0.005,0.009,0.004,0.01,0c1.485-3.788,1.826-8.028,1.268-12.031C537.921,280.508,537.193,278.507,536.181,276.698z"/>
		<path style="fill:#B9121B;" d="M550.627,265.444c0.802-1.939,1.121-4.111,1.179-6.165c0.056-2.01-0.12-4.01-0.763-5.921
			c-0.662-1.963-1.546-3.638-2.778-5.294c-1.039-1.392-2.243-2.624-3.602-3.708c-0.001-0.001-0.003-0.001-0.004-0.001
			c-0.003,0-0.005,0.001-0.006,0.005c-0.474,3.358-0.37,6.708,0.113,10.059c0.601,4.171,2.824,7.793,4.56,11.56
			c0.028,0.072,0.053,0.145,0.081,0.217c-1.958,4.809-2.654,10.116-1.844,15.251c0.406,2.585,1.388,5.068,2.46,7.441
			c0.896,1.984,2.069,3.814,3.054,5.749c0.002,0.003,0.009,0.003,0.01,0c2.387-4.21,3.598-9.415,3.562-14.231
			c-0.019-2.42-0.646-4.83-1.506-7.076C554.032,270.429,552.59,267.827,550.627,265.444z"/>
		<path style="fill:#B9121B;" d="M566.413,265.849c-0.001-0.001-0.003-0.001-0.004-0.001c-0.002,0-0.003,0.001-0.004,0.003
			c-0.38,0.712-0.702,1.447-1.013,2.192c-0.95,2.297-1.52,4.652-1.747,7.136c0.006-0.043,0.011-0.085,0.017-0.128
			c-0.119,0.925-0.206,1.852-0.156,2.789c0.063,1.208,0.288,2.405,0.535,3.586c0.375,1.797,1.006,3.557,1.727,5.247
			c0.195,0.493,0.4,0.982,0.616,1.466c0.171,0.418,0.332,0.837,0.475,1.266c0,0.004,0.005,0.005,0.009,0.004
			c1.329-1.386,2.212-3.219,2.872-5.004c0.735-1.987,1.14-4.006,1.266-6.122c0.118-1.972-0.274-3.986-0.921-5.843
			C569.24,270.013,568.069,267.81,566.413,265.849z"/>
		<path style="fill:#B9121B;" d="M565.317,268.215c0.024-0.058,0.05-0.115,0.074-0.173c0.006-0.015,0.012-0.03,0.018-0.045
			C565.379,268.069,565.348,268.142,565.317,268.215z"/>
		<path style="fill:#B9121B;" d="M581.68,265.309c-0.002-0.002-0.004-0.003-0.005-0.003c-0.002,0-0.004,0.001-0.005,0.003
			c-0.837,2.182-1.447,4.394-1.942,6.673c-0.347,1.6-0.563,3.242-0.662,4.875c-0.066,1.091-0.179,2.161-0.115,3.259
			c0.257,4.472,1.258,8.805,2.255,13.154c0,0.005,0.007,0.004,0.01,0c1.296-1.716,2.408-3.574,3.296-5.534
			c0.559-1.233,1.016-2.458,1.386-3.76c0.361-1.272,0.544-2.542,0.664-3.861c0.254-2.757-0.342-5.535-1.22-8.134
			C584.529,269.576,583.223,267.318,581.68,265.309z"/>
		<path style="fill:#B9121B;" d="M601.176,273.622c-0.247-1.042-0.603-2.012-1.015-3.004c-0.485-1.166-0.982-2.297-1.643-3.37
			c-0.599-0.973-1.249-1.909-1.972-2.795c0-0.001-0.001-0.001-0.002-0.001c-0.002,0-0.005,0.003-0.006,0.005
			c-0.817,2.429-1.546,4.922-1.989,7.45c-0.229,1.305-0.467,2.601-0.645,3.918c-0.137,1.037-0.205,2.081-0.309,3.122
			c-0.146,1.451-0.089,2.901,0.063,4.347c0.156,1.485,0.275,2.962,0.504,4.441c0.322,2.087,0.761,4.145,1.336,6.178
			c0.205,0.726,0.426,1.449,0.651,2.17c0.002,0.004,0.009,0.005,0.01,0c1.173-1.854,2.24-3.775,3.139-5.777
			c0.985-2.199,1.871-4.5,2.26-6.887c0.278-1.708,0.459-3.404,0.393-5.132C601.894,276.744,601.532,275.123,601.176,273.622z"/>
		<path style="fill:#B9121B;" d="M607.955,277.707c-0.001-0.001-0.004-0.002-0.006-0.002c-0.003,0-0.005,0.001-0.005,0.004
			c-1.416,5.501-2.854,11.117-3.131,16.811c-0.063,1.286-0.106,2.571-0.073,3.859c0.052,2.067,0.159,4.134-0.049,6.196
			c-0.044,0.292-0.097,0.577-0.159,0.867c0,0.005,0.004,0.009,0.009,0.005c2.06-1.192,3.596-3.353,4.653-5.441
			c0.631-1.247,1.187-2.537,1.69-3.84C613.226,290.117,611.786,282.813,607.955,277.707z"/>
		<path style="fill:#B9121B;" d="M361.563,542.826c-1.508,0.101-3.002,0.285-4.496,0.512c-1.264,0.192-2.464,0.65-3.707,0.903
			c-0.364,0.015-0.724,0.005-1.087-0.025c-1.041-0.194-2.049-0.575-3.069-0.859c-0.555-0.154-1.092-0.357-1.627-0.565
			c-0.15-0.069-0.299-0.139-0.446-0.211c-0.001,0-0.002,0-0.003,0c-0.004,0-0.007,0.003-0.006,0.006
			c0.24,0.969,0.645,1.876,1.11,2.757c0.374,0.707,0.754,1.418,1.223,2.066c0.973,1.341,2.246,2.206,3.775,2.804
			c0.73,0.287,1.624,0.311,2.391,0.389c1.003,0.102,1.993,0.017,2.986-0.144c1.612-0.264,3.143-0.917,4.554-1.732
			c2.408-1.393,4.291-3.609,5.455-6.114c0.002-0.003,0-0.009-0.005-0.009C366.26,542.563,363.91,542.671,361.563,542.826z"/>
		<path style="fill:#B9121B;" d="M352.965,535.915c1.584,0.082,3.256-0.276,4.755-0.764c2.802-0.914,5.197-2.83,7.32-4.823
			c0.003-0.002,0.002-0.009-0.002-0.009c-1.049-0.176-2.107-0.311-3.169-0.389c-1.359-0.101-2.724-0.056-4.085-0.129
			c-2.7-0.146-5.398-0.302-8.089-0.559c-2.731-0.261-5.495-0.293-8.22-0.616c-0.409-0.058-0.807-0.137-1.208-0.236
			c-0.004,0-0.009,0.003-0.005,0.009c0.686,0.952,1.524,1.786,2.417,2.547c1.605,1.365,3.273,2.629,5.177,3.553
			C349.489,535.291,351.145,535.819,352.965,535.915z"/>
		<path style="fill:#B9121B;" d="M355.618,513.793c-1.972,0.096-3.913,0.354-5.846,0.752c-1.546,0.316-3.082,0.685-4.642,0.924
			c-1.585,0.198-3.222,0.418-4.816,0.315c-0.005,0-0.007,0.007-0.003,0.01c0.619,0.752,1.346,1.372,2.132,1.948
			c1.847,1.352,3.853,2.332,6.112,2.776c3.369,0.665,6.685,0.203,9.799-1.209c2.606-1.181,4.866-3.145,6.765-5.257
			c0.002-0.002,0.002-0.009-0.003-0.009c-1.834-0.271-3.671-0.364-5.513-0.364C358.276,513.679,356.948,513.727,355.618,513.793z"/>
		<path style="fill:#B9121B;" d="M349.316,502.251c3.416,0.139,6.729-0.886,9.757-2.392c2.545-1.267,4.891-3.172,6.633-5.417
			c0.004-0.003,0.002-0.01-0.003-0.01c-2.564-0.077-5.118-0.196-7.678-0.196c-1.119,0-2.238,0.023-3.36,0.081
			c-2.12,0.109-4.237,0.37-6.315,0.803c-1.723,0.359-3.431,0.837-5.171,1.114c-1.207,0.117-2.385,0.081-3.59-0.054
			c-0.362-0.052-0.724-0.102-1.086-0.15c-0.52-0.094-1.027-0.215-1.535-0.363c-0.005-0.002-0.009,0.003-0.005,0.007
			c0.815,1.456,1.998,2.825,3.318,3.841C342.865,501.503,346.119,502.123,349.316,502.251z"/>
		<path style="fill:#B9121B;" d="M341.169,485.911c1.802,0.344,3.65,0.535,5.481,0.653c3.362,0.217,6.807-0.41,9.978-1.505
			c3.683-1.272,7.297-3.214,10.104-5.938c0.004-0.003,0-0.009-0.004-0.009c-3.099-0.214-6.185-0.549-9.291-0.643
			c-0.621-0.019-1.242-0.029-1.863-0.029c-3.003,0-5.998,0.237-8.945,0.847c-1.27,0.264-2.53,0.572-3.775,0.933
			c-1.823,0.529-3.609,1.276-5.474,1.636c-0.089,0.005-0.178,0.005-0.268,0.001c-0.227-0.046-0.443-0.103-0.665-0.174
			c-0.512-0.254-0.987-0.572-1.445-0.916c-0.163-0.135-0.324-0.272-0.481-0.414c-0.005-0.003-0.01,0-0.01,0.005
			c0.21,1.435,0.632,2.865,1.767,3.841c0.669,0.577,1.548,0.834,2.372,1.103C339.474,485.573,340.32,485.749,341.169,485.911z"/>
		<path style="fill:#B9121B;" d="M361.911,456.971c-1.284-0.08-2.564-0.226-3.85-0.309c-0.709-0.047-1.417-0.08-2.124-0.08
			c-0.678,0-1.356,0.03-2.034,0.108c-1.637,0.186-3.251,0.493-4.856,0.858c-1.868,0.426-3.683,1.018-5.525,1.541
			c-0.004,0-0.005,0.005-0.002,0.009c1.774,1.437,3.786,2.498,5.914,3.306c3.146,1.195,6.68,1.143,9.797-0.099
			c1.445-0.579,2.736-1.352,3.9-2.389c0.9-0.804,1.459-1.901,1.909-3.002c0.002-0.003-0.002-0.007-0.005-0.007
			C363.991,456.956,362.959,457.035,361.911,456.971z"/>
		<path style="fill:#B9121B;" d="M368.195,437.056c-2.945-2.026-6.251-3.39-9.741-4.135c-2.029-0.431-4.043-0.586-6.112-0.54
			c-1.634,0.036-3.246,0.025-4.871-0.151c-1.151-0.182-2.313-0.401-3.406-0.805c-0.19-0.082-0.377-0.172-0.563-0.264
			c-0.001-0.001-0.002-0.001-0.004-0.001c-0.003,0-0.007,0.003-0.005,0.007c0.516,1.831,1.598,3.53,2.872,4.929
			c1.854,2.034,4.411,3.204,7.059,3.81c2.738,0.627,5.619,0.282,8.322-0.344c2.25-0.52,4.429-1.388,6.449-2.497
			C368.2,437.063,368.198,437.058,368.195,437.056z"/>
		<path style="fill:#B9121B;" d="M378.158,414.733c0.004-0.003,0.004-0.009,0-0.01c-4.132-3.168-8.986-5.266-14.128-6.019
			c0.168,0.023,0.336,0.046,0.504,0.069c-1.462-0.257-2.934-0.381-4.412-0.381c-0.511,0-1.023,0.015-1.536,0.044
			c-2.876,0.164-5.725,0.789-8.615,0.494c-0.371-0.057-0.728-0.131-1.09-0.235c-0.004-0.002-0.007,0.004-0.005,0.007
			c1.096,3.369,4.47,5.705,7.58,7.054c2.255,0.978,4.55,1.859,7.017,2.076c2.446,0.215,4.948-0.075,7.353-0.514
			C373.391,416.849,375.846,415.935,378.158,414.733z"/>
		<path style="fill:#B9121B;" d="M360.251,380.229c-0.135-0.107-0.267-0.216-0.396-0.332c-0.001-0.001-0.003-0.001-0.004-0.001
			c-0.003,0-0.006,0.003-0.005,0.007c0.32,2.015,1.595,3.746,2.985,5.177c1.855,1.908,4.158,3.329,6.619,4.303
			c2.484,0.98,5.233,1.178,7.881,1.076c2.359-0.092,4.705-0.473,6.984-1.079c0.005-0.002,0.005-0.009,0.002-0.01
			c-1.574-1.202-3.235-2.285-4.992-3.2c-1.965-1.027-4.062-1.833-6.155-2.554c-1.944-0.671-4.015-0.985-6.032-1.35
			c-1.917-0.346-3.856-0.637-5.669-1.367C361.044,380.702,360.644,380.488,360.251,380.229z"/>
		<path style="fill:#B9121B;" d="M371.538,359.192c0.005,0.004,0.009,0.007,0.014,0.011c-0.006-0.005-0.012-0.009-0.018-0.014
			c-0.005-0.003-0.009-0.007-0.014-0.01c0.003,0.002,0.006,0.004,0.009,0.006c-0.085-0.068-0.171-0.136-0.257-0.204
			c-0.001-0.001-0.003-0.001-0.005-0.001c-0.003,0-0.005,0.001-0.004,0.005c0.142,1.928,0.818,3.897,1.776,5.572
			c1.291,2.259,3.292,4.005,5.452,5.402c2.363,1.529,5.19,2.172,7.942,2.533c2.335,0.304,4.647,0.283,6.982-0.005
			c0.181-0.023,0.273-0.207,0.146-0.351c-2.316-2.669-5.063-4.892-8.091-6.703c-3.124-1.87-6.625-2.697-9.962-4.051
			C374.142,360.78,372.728,360.086,371.538,359.192z"/>
		<polygon style="fill:#B9121B;" points="371.538,359.192 371.529,359.185 371.534,359.189 		"/>
		<path style="fill:#B9121B;" d="M400.73,345.154c3.892,1.577,8.478,0.964,12.219-0.74c0.003-0.002,0.003-0.007,0-0.01
			c-2.139-1.645-4.47-3.013-6.946-4.085c-1.446-0.627-2.877-1.162-4.423-1.485c-1.473-0.308-2.993-0.447-4.49-0.626
			c-0.724-0.105-1.443-0.236-2.129-0.493c-0.376-0.184-0.732-0.383-1.082-0.615c-0.139-0.107-0.275-0.219-0.408-0.333
			c-0.001-0.001-0.003-0.002-0.004-0.002c-0.003,0-0.005,0.002-0.005,0.005C393.39,340.908,397.254,343.747,400.73,345.154z"/>
		<path style="fill:#B9121B;" d="M407.881,316.879c1.689,2.408,4.041,4.416,6.632,5.797c2.736,1.456,5.858,2.128,8.942,2.165
			c1.39,0.017,2.808-0.17,4.149-0.532c1.185-0.32,2.257-0.999,3.218-1.746c0.004-0.002,0.002-0.007-0.002-0.009
			c-1.082-0.199-2.154-0.444-3.176-0.851c-2.585-1.121-5.039-2.544-7.539-3.842c-2.742-1.422-5.671-2.439-8.52-3.625
			c-1.166-0.497-2.335-0.995-3.379-1.72c-0.383-0.328-0.709-0.69-1.03-1.083c-0.227-0.305-0.43-0.617-0.623-0.947
			c-0.001-0.002-0.003-0.002-0.005-0.002c-0.002,0-0.005,0.001-0.006,0.004c-0.275,0.928-0.427,1.958-0.245,2.919
			C406.542,314.687,407.138,315.819,407.881,316.879z"/>
		<path style="fill:#B9121B;" d="M443.431,304.186c1.619,0.332,3.292,0.554,4.939,0.704c1.513,0.138,3.035,0.126,4.545,0.278
			c0.353,0.055,0.693,0.124,1.036,0.232c0.137,0.06,0.272,0.125,0.404,0.197c0.005,0.002,0.01-0.002,0.009-0.007
			c-0.361-1.842-1.965-3.388-3.315-4.59c-1.065-0.947-2.187-1.862-3.381-2.641c-1.437-0.936-3.007-1.677-4.627-2.232
			c-1.628-0.56-3.483-0.676-5.193-0.688c-0.044,0-0.088,0-0.133,0c-3.098,0-6.156,0.719-9.011,1.877
			c-0.004,0.002-0.007,0.007-0.002,0.01c1.956,1.518,4.083,2.825,6.312,3.904C437.7,302.527,440.507,303.59,443.431,304.186z"/>
		<path style="fill:#B9121B;" d="M463.672,277.704c-2.971-1.79-6.416-2.817-9.838-3.27c-0.259-0.045-0.664-0.162-1.016-0.162
			c-0.318,0-0.592,0.095-0.676,0.425c-0.035,0.135,0.043,0.297,0.188,0.33c0.158,0.035,0.315,0.07,0.473,0.102
			c0.044,0.032,0.087,0.066,0.128,0.103c-0.033-0.026-0.066-0.05-0.099-0.076c0.965,0.794,2.029,1.476,3.026,2.233
			c2.112,1.642,4.129,3.371,6.1,5.179c2.029,1.861,4.114,3.668,6.117,5.558c1.485,1.399,3.077,2.705,4.694,3.949
			c-0.04-0.03-0.078-0.059-0.116-0.089c0.427,0.349,0.86,0.691,1.286,1.044c0.005,0.004,0.01,0,0.01-0.007
			c-0.427-2.59-1.52-5.035-2.743-7.34C469.467,282.408,466.84,279.615,463.672,277.704z M453.165,275.049
			c-0.001-0.001-0.003-0.002-0.004-0.003c0.003,0.002,0.006,0.004,0.009,0.007C453.169,275.052,453.167,275.05,453.165,275.049z"/>
		<path style="fill:#B9121B;" d="M493.508,282.669c0.287,0.228,0.562,0.464,0.834,0.709c0.003,0.004,0.009,0.002,0.01-0.003
			c0.172-1.875-0.151-3.774-0.544-5.605c-0.32-1.487-0.78-2.924-1.336-4.342c-1.277-3.251-3.08-6.26-5.824-8.494
			c-1.918-1.562-4.012-2.679-6.32-3.555c-1.817-0.69-3.68-1.004-5.613-1.105c-0.004,0-0.007,0.005-0.005,0.009
			c2.397,4.752,5.151,9.484,8.515,13.621c1.762,2.167,3.926,4.022,6.135,5.716c-0.191-0.146-0.38-0.294-0.572-0.44
			C490.318,280.407,491.944,281.492,493.508,282.669z"/>
		<path style="fill:#B9121B;" d="M512.474,269.712c0.13,0.168,0.255,0.338,0.378,0.509c0.003,0.003,0.01,0.005,0.01,0
			c0.342-1.699,0.146-3.405-0.096-5.103c-0.203-1.437-0.546-2.832-0.966-4.222c-0.333-1.105-0.764-2.173-1.227-3.232
			c-0.851-1.941-1.986-3.619-3.351-5.238c-2.38-2.82-5.539-5.019-8.875-6.545c-0.001-0.001-0.002-0.001-0.003-0.001
			c-0.003,0-0.005,0.003-0.004,0.007c0.768,2.936,1.784,5.784,2.967,8.576c0.592,1.395,1.251,2.764,1.965,4.102
			c0.844,1.581,1.949,3.011,3.056,4.415c-0.125-0.161-0.249-0.323-0.374-0.484c0.952,1.224,1.969,2.367,3.008,3.521
			C510.1,267.279,511.373,268.418,512.474,269.712z"/>
		<path style="fill:#B9121B;" d="M531.888,265.492c0.719-2.384,0.784-4.998,0.544-7.462c-0.29-2.981-1.037-5.853-2.679-8.398
			c-1.975-3.058-4.863-5.511-8.096-7.142c-0.001,0-0.002-0.001-0.002-0.001c-0.003,0-0.005,0.002-0.005,0.006
			c-0.111,5.987,1.517,12.224,5.068,17.083c0.844,1.154,1.757,2.264,2.728,3.313c0.806,0.872,1.664,1.699,2.434,2.603
			C531.882,265.497,531.888,265.496,531.888,265.492z"/>
		<path style="fill:#B9121B;" d="M565.731,265.569c0.749-1.953,1.249-3.989,1.588-6.049c0.358-2.177,0.525-4.38,0.283-6.576
			c-0.132-1.197-0.301-2.427-0.693-3.574c-0.516-1.511-1.161-2.992-1.899-4.408c-1.082-2.067-2.573-3.984-4.168-5.679
			c-0.001-0.001-0.002-0.001-0.003-0.001c-0.003,0-0.005,0.001-0.005,0.004c-0.842,3.802-1.019,7.676-0.542,11.528
			c-0.011-0.08-0.021-0.159-0.032-0.239c0.162,1.666,0.452,3.275,0.969,4.866c0.448,1.378,0.945,2.726,1.512,4.058
			c0.884,2.081,1.984,4.044,2.979,6.07C565.722,265.575,565.729,265.573,565.731,265.569z"/>
		<path style="fill:#B9121B;" d="M582.167,263.64c1.022-3.94,0.931-8.273-0.083-12.205c-0.504-1.948-1.498-3.805-2.611-5.466
			c-1.569-2.339-3.45-4.338-5.704-6.03c-0.001-0.001-0.002-0.001-0.003-0.001c-0.003,0-0.005,0.002-0.006,0.004
			c-0.919,4.734-0.551,9.769,1.353,14.217c1.574,3.676,4.253,6.684,7.043,9.484C582.16,263.645,582.166,263.645,582.167,263.64z"/>
		<path style="fill:#B9121B;" d="M596.035,259.938c-0.033-0.042-0.064-0.085-0.097-0.126c-0.003-0.004-0.006-0.008-0.009-0.012
			C595.964,259.846,595.999,259.892,596.035,259.938z"/>
		<path style="fill:#B9121B;" d="M598.609,262.964c0.076,0.111,0.148,0.223,0.219,0.337c0.002,0.002,0.007,0.004,0.009,0
			c0.881-1.581,0.921-3.779,0.858-5.566c-0.064-1.8-0.32-3.655-0.902-5.367c-1.251-3.68-4.001-6.949-7.382-8.852
			c-0.001-0.001-0.002-0.001-0.003-0.001c-0.002,0-0.005,0.003-0.006,0.005c-0.101,1.484-0.151,2.995-0.026,4.477
			c0.104,1.237,0.332,2.467,0.552,3.688c0.553,3.05,2.109,5.726,4.008,8.126C596.793,260.896,597.747,261.886,598.609,262.964z"/>
		<path style="fill:#B9121B;" d="M182.601,346.832c-1.885-3.037-4.307-5.846-6.955-8.242c-0.001-0.001-0.003-0.002-0.004-0.002
			c-0.003,0-0.005,0.002-0.005,0.005c-1.077,3.45-1.009,7.25,0.207,10.657c0.89,2.498,2.347,4.531,4.187,6.406
			c1.836,1.871,4.111,3.4,6.46,4.554c0.005,0.003,0.009-0.002,0.009-0.005c-0.403-2.464-0.723-4.925-1.36-7.344
			C184.587,350.767,183.744,348.672,182.601,346.832z"/>
		<path style="fill:#B9121B;" d="M197.769,350.813c-1.058-2.775-2.087-5.553-3.214-8.303c-0.62-1.515-1.242-3.033-2.055-4.456
			c-0.754-1.317-1.638-2.556-2.563-3.756c-1.764-2.288-3.694-4.411-5.888-6.296c-0.001-0.001-0.002-0.002-0.003-0.002
			c-0.003,0-0.005,0.001-0.005,0.004c-0.45,2.921-0.349,5.791,0.215,8.69c0.688,3.539,2.472,6.779,5.012,9.317
			c1.65,1.649,3.64,2.887,5.683,3.984c0.969,0.521,1.984,0.982,3.03,1.327c0.005,0.002,0.009-0.005,0.007-0.009
			c-0.077-0.174-0.154-0.347-0.229-0.521C197.762,350.799,197.765,350.806,197.769,350.813z"/>
		<path style="fill:#B9121B;" d="M210.352,330.196c-0.808-1.27-1.659-2.495-2.583-3.683c-0.943-1.211-2.048-2.26-3.212-3.258
			c-2.267-1.942-4.783-3.475-7.582-4.519c0,0-0.001-0.001-0.001-0.001c-0.002,0-0.006,0.003-0.006,0.006
			c0.283,2.988,1.122,5.806,2.394,8.522c1.432,3.056,3.911,5.481,6.89,7.035c2.319,1.209,5.038,2.123,7.655,2.415
			c0.005,0,0.007-0.005,0.005-0.009c-0.486-0.857-0.924-1.744-1.357-2.629C211.898,332.736,211.153,331.456,210.352,330.196z"/>
		<path style="fill:#B9121B;" d="M219.392,310.709c-2.672-2.37-5.789-4.171-9.205-5.228l-0.001,0c-0.003,0-0.005,0.004-0.004,0.007
			c0.575,3.753,2.033,7.314,4.366,10.311c1.536,1.975,3.638,3.616,5.89,4.688c2.093,0.997,4.383,1.522,6.675,1.819
			c0.003,0.002,0.007-0.005,0.005-0.009c-1.1-1.892-2.224-3.772-3.315-5.669C222.557,314.46,221.284,312.386,219.392,310.709z"/>
		<path style="fill:#B9121B;" d="M245.895,300.122c-0.959-0.869-1.993-1.673-3.04-2.431c-1.416-1.027-2.971-1.744-4.601-2.366
			c0.203,0.086,0.405,0.171,0.607,0.256c-3.44-1.429-7.048-2.228-10.784-2.313c-0.005,0-0.007,0.005-0.005,0.009
			c1.277,2.465,2.957,4.658,4.957,6.583c1.579,1.522,3.378,2.863,5.395,3.737c2.163,0.938,4.291,1.569,6.625,1.918
			c1.953,0.292,3.992,0.443,5.951,0.113c0.005-0.002,0.005-0.007,0.002-0.01C249.269,303.803,247.763,301.812,245.895,300.122z"/>
		<path style="fill:#B9121B;" d="M245.937,279.026c-1.367,0-2.727,0.13-4.041,0.374c-0.003,0.002-0.005,0.007-0.003,0.009
			c2.457,3.428,6.017,6.361,10.138,7.49c3.12,0.855,6.604,0.822,9.747,0.095c0.005-0.002,0.007-0.007,0.004-0.01
			c-2.33-2.13-4.474-4.408-7.285-5.935C251.909,279.643,248.91,279.026,245.937,279.026z"/>
		<path style="fill:none;stroke:#B9121B;stroke-width:0;stroke-linecap:round;stroke-linejoin:round;" d="M279.309,257.808
			c-0.364-0.056-0.728-0.105-1.092-0.147"/>
		<path style="fill:#B9121B;" d="M283.291,258.876c-1.663-0.65-3.315-0.981-5.074-1.216c-1.208-0.142-2.421-0.214-3.63-0.214
			c-3.023,0-6.032,0.449-8.944,1.374c-0.005,0.002-0.005,0.007-0.003,0.01c2.139,2.201,4.616,4.003,7.372,5.353
			c1.279,0.627,2.613,1.18,3.97,1.617c1.147,0.37,2.399,0.488,3.586,0.608c2.46,0.25,4.891,0,7.323-0.387
			c1.883-0.302,3.794-0.804,5.558-1.538c0.003-0.002,0.005-0.007,0.002-0.01c-2.21-1.235-4.227-2.776-6.477-3.958
			C285.782,259.892,284.542,259.364,283.291,258.876z"/>
		<path style="fill:#B9121B;" d="M278.202,257.658c0.005,0.001,0.009,0.001,0.014,0.002h0
			C278.212,257.66,278.207,257.659,278.202,257.658z"/>
		<path style="fill:#B9121B;" d="M290.103,237.845c-3.238,0-6.487,0.847-9.31,2.407c-0.003,0.002-0.003,0.007,0,0.009
			c3.447,2.032,7.241,3.553,11.216,4.089c2.101,0.234,4.173,0.116,6.279-0.174c1.833-0.252,3.631-0.678,5.353-1.359
			c0.004-0.002,0.005-0.007,0-0.01c-3.254-2.038-6.777-4.095-10.624-4.726C292.055,237.923,291.079,237.846,290.103,237.845z"/>
		<path style="fill:#B9121B;" d="M292.026,244.352c-0.006-0.001-0.012-0.002-0.017-0.003c-0.277-0.031-0.555-0.067-0.834-0.11
			C291.458,244.276,291.743,244.314,292.026,244.352z"/>
		<path style="fill:#B9121B;" d="M326.082,224.955c-0.095-0.028-0.189-0.057-0.285-0.083c-1.344-0.593-2.565-1.443-3.865-2.129
			c-1.201-0.632-2.441-1.176-3.695-1.69c-0.605-0.248-1.214-0.48-1.833-0.691c-1.576-0.544-3.152-0.841-4.802-1.055
			c-1.393-0.182-2.795-0.268-4.197-0.268c-2.77,0-5.542,0.336-8.246,0.933c-0.003,0-0.005,0.005-0.002,0.009
			c1.948,1.732,4.062,3.16,6.388,4.333c1.746,0.881,3.56,1.633,5.461,2.099c2.175,0.533,4.5,0.7,6.739,0.615
			c1.374-0.052,2.74-0.203,4.102-0.387c0.624-0.085,1.246-0.189,1.864-0.307c1.091-0.207,2.238-0.485,2.952-1.38
			c0.003-0.003,0.002-0.009-0.003-0.009C326.468,224.966,326.275,224.969,326.082,224.955z"/>
		<path style="fill:#B9121B;" d="M339.445,202.951c0.003,0,0.005-0.005,0.003-0.009c-1.941-3.329-5.389-5.236-8.828-6.68
			c-1.823-0.764-3.741-1.083-5.671-1.083c-1.378,0-2.763,0.163-4.125,0.442c-2.769,0.57-6.015,2.078-7.486,4.628
			c-0.002,0.003,0,0.007,0.005,0.009c0.076,0.008,0.151,0.017,0.227,0.023c2.602,0.38,5.11,1.425,7.636,2.119
			c2.781,0.764,5.664,1.185,8.55,1.131C332.98,203.472,336.222,202.546,339.445,202.951z"/>
		<path style="fill:#B9121B;" d="M328.265,177.844c-0.004,0.004-0.002,0.009,0.002,0.01c6.208,1.501,12.525,3.075,18.958,2.87
			c2.543-0.08,5.089-0.158,7.632-0.242c1.287-0.042,2.597-0.148,3.878,0.022c0.091,0.014,0.182,0.028,0.272,0.044
			c0.005,0,0.009-0.005,0.005-0.01c-0.862-1.093-1.918-1.977-3.004-2.837c-0.815-0.646-1.651-1.266-2.512-1.852
			c-1.609-1.091-3.443-1.882-5.269-2.526c-1.77-0.624-3.742-0.867-5.608-0.896c-0.084-0.001-0.167-0.002-0.251-0.002
			c-1.763,0-3.572,0.276-5.274,0.705C333.851,173.948,330.723,175.582,328.265,177.844z"/>
		<path style="fill:#B9121B;" d="M340.336,157.878c-0.002,0.002-0.002,0.007,0.003,0.009c2.385,0.552,4.811,0.923,7.227,1.317
			c1.541,0.25,3.086,0.46,4.649,0.426c1.376-0.028,2.75-0.156,4.109-0.37c2.012-0.32,3.954-0.969,5.964-1.284
			c0.004,0,0.005-0.005,0.002-0.009c-1.626-1.317-3.463-2.328-5.386-3.145c-1.254-0.532-2.531-0.987-3.867-1.261
			c-0.77-0.158-1.533-0.224-2.295-0.224c-1.057,0-2.112,0.128-3.176,0.314C344.768,154.139,342.24,155.823,340.336,157.878z"/>
		<path style="fill:#B9121B;" d="M346.138,144.69c2.606,0.803,5.276,1.395,7.988,1.671c1.843,0.188,3.768,0.327,5.608,0.136
			c2.158-0.224,4.27-0.669,6.345-1.294c1.769-0.533,3.496-1.214,5.275-1.71c0.003-0.002,0.005-0.009,0.002-0.01
			c-3.492-1.817-7.495-2.837-11.408-3.108c-0.387-0.027-0.776-0.04-1.164-0.04c-1.753,0-3.504,0.272-5.179,0.775
			c-2.684,0.808-5.181,1.956-7.469,3.57C346.133,144.683,346.133,144.688,346.138,144.69z"/>
		<path style="fill:#B9121B;" d="M365.913,132.393c2.585-0.139,5.087-0.727,7.64-1.088c0.691-0.081,1.381-0.132,2.077-0.077
			c0.177,0.03,0.353,0.067,0.527,0.111c0.005,0.002,0.009-0.005,0.005-0.009c-1.174-1.381-3.021-2.172-4.714-2.712
			c-1.053-0.339-2.12-0.638-3.199-0.886c-1.461-0.337-2.999-0.532-4.496-0.586c-0.132-0.005-0.264-0.007-0.396-0.007
			c-1.36,0-2.738,0.234-4.06,0.502c-2.696,0.542-5.269,1.619-7.667,2.943c-0.003,0.002-0.003,0.009,0.002,0.01
			c2.116,0.592,4.279,1.034,6.454,1.336C360.682,132.29,363.292,132.532,365.913,132.393z"/>
		<path style="fill:#B9121B;" d="M186.262,318.454c0.003,0.002,0.009,0,0.007-0.005c-0.097-0.903-0.092-1.81-0.089-2.719
			c0.007-2.464-0.049-4.969-0.483-7.399c-0.507-2.841-1.734-5.568-3.473-7.863c-0.001-0.002-0.003-0.003-0.004-0.003
			c-0.002,0-0.003,0.001-0.004,0.003c-1.585,2.663-2.55,5.949-2.191,9.057C180.447,313.185,183.05,316.649,186.262,318.454z"/>
		<path style="fill:#B9121B;" d="M191.093,310.094c0.002,0.003,0.009,0.002,0.009-0.002c0.238-1.657,0.641-3.294,0.99-4.931
			c0.481-2.271,1.117-4.507,1.201-6.838c0.104-2.943-0.427-5.933-1.447-8.685c0-0.003-0.002-0.005-0.005-0.005
			c-0.001,0-0.003,0-0.004,0.002c-1.967,2.283-3.473,4.993-4.229,7.919c-0.653,2.524-0.596,5.16,0.354,7.608
			C188.671,306.986,189.741,308.677,191.093,310.094z"/>
		<path style="fill:#B9121B;" d="M207.045,305.243c0.003,0.004,0.009-0.002,0.007-0.005c-0.236-1.258-0.405-2.526-0.62-3.788
			c-0.356-2.081-0.71-4.158-1.015-6.247c-0.252-1.734-0.565-3.44-0.961-5.148c-0.335-1.444-0.7-2.88-1.041-4.322
			c-0.375-1.595-0.832-3.148-1.426-4.675c-0.097-0.25-0.297-0.373-0.498-0.373c-0.205,0-0.411,0.126-0.513,0.373
			c-0.053,0.128-0.084,0.248-0.1,0.365c-0.395,1.447-0.799,2.892-1.113,4.358c-0.77,3.596-0.643,7.347,0.65,10.801
			C201.692,300,204.128,303.051,207.045,305.243z"/>
		<path style="fill:#B9121B;" d="M214.375,281.13c0.594,0.985,1.347,1.899,2.054,2.802c1.148,1.466,2.465,2.835,3.878,4.046
			c0.003,0.003,0.009,0.002,0.009-0.004c0.094-1.901,0.372-3.788,0.474-5.688c0.136-2.481-0.023-4.934-0.452-7.386
			c-0.368-2.106-1.225-4.194-2.123-6.112c-1.223-2.606-3.018-5.104-5.002-7.174c-0.001-0.001-0.003-0.002-0.004-0.002
			c-0.002,0-0.004,0.002-0.005,0.004c-1.171,2.849-1.736,5.735-1.814,8.809c-0.059,2.257,0.139,4.566,0.999,6.666
			C212.963,278.488,213.595,279.839,214.375,281.13z"/>
		<path style="fill:#B9121B;" d="M225.584,262.911c0.169,0.949,0.389,1.84,0.747,2.733c0.655,1.638,1.444,3.188,2.404,4.667
			c0.794,1.225,1.84,2.373,2.828,3.449c1.463,1.595,3.223,2.969,4.939,4.277c0.381,0.29,0.773,0.565,1.166,0.836
			c0.004,0.002,0.009-0.002,0.009-0.005c-0.154-2.582-0.293-5.141-0.654-7.703c-0.184-1.425-0.444-2.826-0.691-4.24
			c-0.302-1.726-0.793-3.341-1.443-4.945c0.033,0.077,0.065,0.154,0.098,0.232c-0.507-1.329-1.079-2.641-1.742-3.899
			c-0.455-0.865-1.006-1.664-1.501-2.504c-1.421-2.413-3.185-4.647-5.186-6.605c-0.001-0.001-0.002-0.002-0.003-0.002
			c-0.002,0-0.005,0.001-0.005,0.004c-0.513,1.499-0.898,3.004-1.142,4.569c-0.198,1.286-0.445,2.679-0.403,3.989
			C225.058,259.489,225.28,261.214,225.584,262.911z"/>
		<path style="fill:#B9121B;" d="M245.549,246.797c2.484,3.838,5.992,6.838,10.082,8.857c0.003,0.003,0.009,0,0.009-0.005
			c-0.985-4.036-1.343-8.225-2.945-12.094c-2.045-4.948-5.697-9.154-10.071-12.21c-0.001-0.001-0.002-0.001-0.003-0.001
			c-0.002,0-0.005,0.003-0.006,0.007c-0.377,3.12-0.195,6.112,0.46,9.184C243.545,242.738,244.32,244.898,245.549,246.797z"/>
		<path style="fill:#B9121B;" d="M273.274,239.231c0.497,0.235,1.006,0.448,1.515,0.655c0.004,0.002,0.009-0.003,0.007-0.007
			c-1.805-4.542-3.004-9.286-5.163-13.692c-1.15-2.349-2.749-4.479-4.448-6.46c-2.064-2.408-4.509-4.465-7.083-6.305
			c-0.841-0.601-1.717-1.152-2.608-1.675c-0.001,0-0.002-0.001-0.003-0.001c-0.003,0-0.006,0.002-0.004,0.006
			c0.149,3.612,0.799,7.161,1.994,10.572c0.853,2.43,1.861,4.885,3.431,6.948c1.089,1.43,2.234,2.792,3.515,4.053
			c1.011,0.995,2.187,1.854,3.31,2.717C269.434,237.346,271.347,238.319,273.274,239.231z"/>
		<path style="fill:#B9121B;" d="M273.954,210.069c0.754,1.131,1.574,2.257,2.51,3.244c1.911,2.019,4.203,3.72,6.529,5.233
			c1.793,1.164,3.662,2.201,5.454,3.367c0.144,0.101,0.288,0.203,0.431,0.307c0.003,0.002,0.009-0.002,0.009-0.005
			c-0.45-3.45-1.81-6.906-3.438-9.959c-0.982-1.838-2.139-3.595-3.489-5.184c-1.511-1.783-3.357-3.284-5.236-4.66
			c0.226,0.175,0.452,0.349,0.677,0.525c-2.49-1.935-5.123-3.541-8.009-4.814c0,0-0.001-0.001-0.002-0.001
			c-0.003,0-0.006,0.003-0.005,0.007c0.49,3.094,1.449,6.004,2.759,8.85C272.638,208.059,273.297,209.086,273.954,210.069z"/>
		<path style="fill:#B9121B;" d="M295.369,196.706c1.979,0.579,4.034,0.858,6.07,1.15c2.403,0.346,4.772,0.775,7.147,1.26
			c1.334,0.271,2.674,0.584,3.965,1.022c0.003,0.002,0.007-0.004,0.005-0.007c-0.643-1.178-1.371-2.325-2.153-3.416
			c-0.407-0.568-0.817-1.134-1.232-1.697c-1.312-1.779-2.86-3.233-4.606-4.576c-1.889-1.452-3.911-2.446-6.112-3.348
			c-2.196-0.902-4.74-1.167-7.092-1.185c-0.062-0.001-0.124-0.001-0.185-0.001c-4.26,0-8.479,1.119-12.324,2.895
			c-0.004,0.002-0.004,0.007,0,0.009c3.376,2.453,7.059,4.277,10.897,5.876C291.589,195.452,293.458,196.149,295.369,196.706z"/>
		<path style="fill:#B9121B;" d="M296.309,172.589c1.654,0.301,3.306,0.605,4.965,0.876c1.795,0.295,3.6,0.464,5.41,0.62
			c2.007,0.174,4.01,0.393,6.018,0.54c1.17,0.086,2.346,0.166,3.51,0.314c0.662,0.102,1.297,0.236,1.934,0.441
			c0.004,0,0.009-0.005,0.007-0.009c-1.093-1.465-2.611-2.46-4.128-3.438c-1.579-1.02-3.324-1.809-5.061-2.507
			c-2.843-1.14-5.811-1.643-8.785-1.643c-4.439,0-8.894,1.12-12.981,2.918c-0.003,0.003-0.002,0.01,0.002,0.01
			C290.217,171.425,293.26,172.035,296.309,172.589z"/>
		<path style="fill:#B9121B;" d="M311.737,159.128c1.795,0.292,3.598,0.537,5.401,0.771c1.715,0.222,3.438,0.295,5.163,0.374
			c1.838,0.085,3.681,0.146,5.521,0.111c1.425-0.026,2.877-0.07,4.293,0.111c0.22,0.038,0.438,0.083,0.655,0.129
			c0.005,0.002,0.009-0.003,0.005-0.009c-1.075-1.312-2.53-2.352-4.005-3.188c-1.597-0.907-3.221-1.684-4.927-2.371
			c-1.597-0.646-3.28-1.081-4.986-1.31c-0.945-0.128-1.87-0.204-2.82-0.204c-0.069,0-0.139,0-0.209,0.001
			c-1.102,0.012-2.194,0.174-3.282,0.323c-1.779,0.243-3.518,0.745-5.195,1.379c-1.562,0.589-3.077,1.322-4.449,2.274
			c-0.003,0.003-0.003,0.01,0.002,0.01C305.862,157.964,308.785,158.649,311.737,159.128z"/>
		<path style="fill:#B9121B;" d="M335.064,147.451c1.818-0.243,3.603-0.661,5.417-0.934c0.625-0.079,1.246-0.141,1.88-0.106
			c0.23,0.036,0.438,0.091,0.664,0.164c0.005,0.002,0.007-0.003,0.005-0.007c-0.688-1.541-2.347-2.611-3.758-3.423
			c-2.052-1.18-4.416-1.982-6.757-2.313c-0.754-0.106-1.484-0.196-2.246-0.2c-0.005,0-0.01,0-0.015,0
			c-0.732,0-1.495,0.129-2.214,0.235c-1.275,0.186-2.502,0.507-3.718,0.933c-2.22,0.777-4.248,1.878-6.152,3.249
			c-0.004,0.002-0.004,0.009,0,0.01c3.438,1.519,7.062,2.295,10.794,2.637C331.002,147.883,333.04,147.72,335.064,147.451z"/>
		<path style="fill:#B9121B;" d="M336.631,130.946c2.017-0.116,4.034-0.486,6.02-0.855c1.618-0.302,3.217-0.714,4.845-0.961
			c0.397-0.046,0.787-0.071,1.189-0.078c0.005,0,0.007-0.007,0.004-0.01c-1.558-1.077-3.454-1.718-5.278-2.191
			c-2.114-0.547-4.243-0.85-6.428-0.923c-0.129-0.004-0.258-0.006-0.387-0.007c-1.707,0-3.421,0.372-5.069,0.776
			c-2.675,0.653-5.223,1.661-7.672,2.917c-0.004,0.002-0.004,0.009,0.002,0.01C328.026,130.717,332.327,131.193,336.631,130.946z"/>
		<path style="fill:#B9121B;" d="M337.555,120.6c3.04-0.381,6.049,0.546,9.095,0.577c1.829,0.02,3.711-0.195,5.53-0.449
			c0.83-0.092,1.655-0.165,2.489-0.171c-0.194,0.323-0.352,0.672-0.493,1.007c-0.003,0.005,0.004,0.009,0.007,0.007
			c0.099-0.049,0.197-0.095,0.296-0.144c0.411-0.173,0.808-0.328,1.245-0.428c1.142-0.13,2.286-0.072,3.433-0.016
			c1.346,0.068,2.695,0.101,4.041,0.151c1.419,0.052,2.839,0.083,4.258,0.068c1.326-0.014,2.644-0.153,3.966-0.215
			c2.045-0.097,4.107-0.342,6.132-0.649c1.051-0.136,2.107-0.271,3.167-0.198c0.166,0.025,0.331,0.056,0.495,0.091
			c0.007,0.002,0.01-0.005,0.007-0.009c-1.35-1.668-3.591-2.415-5.553-3.131c-1.148-0.419-2.344-0.731-3.534-1.013
			c-1.408-0.333-2.837-0.489-4.266-0.489c-2.21,0-4.418,0.373-6.538,1.04c-1.592,0.5-3.193,1.207-4.62,2.074
			c-0.572,0.348-1.098,0.777-1.578,1.241c-0.108,0.104-0.204,0.219-0.293,0.341c-1.737-1.673-4.109-2.725-6.431-3.26
			c-0.906-0.208-1.817-0.307-2.724-0.307c-1.343,0-2.68,0.216-3.989,0.614c-1.845,0.561-3.577,1.588-4.5,3.332
			c-0.002,0.004,0.002,0.009,0.007,0.009C337.322,120.65,337.438,120.624,337.555,120.6z"/>
	</g>
	<g>
		<path style="fill:none;" d="M369.395,541.534c-1.57-8.932-2.738-17.938-3.396-26.985c-1.317-18.088-0.905-36.332,1.512-54.312
			c2.564-19.085,7.042-37.911,13.715-55.987c6.71-18.182,15.419-35.668,26.234-51.763c10.687-15.905,23.196-30.642,37.525-43.389
			c14.443-12.85,30.578-23.892,48.033-32.238c8.798-4.206,17.891-7.811,27.231-10.631c9.219-2.783,18.642-4.847,28.182-6.163
			c8.551-1.18,17.174-1.859,25.808-1.859c0.742,0,1.487,0.005,2.229,0.016c4.726,0.066,9.456,0.281,14.163,0.719
			c1.312,0.122,2.62,0.266,3.928,0.417c1.049,0.123,2.109,0.224,3.153,0.391c2.114,0.338,4.231,0.657,6.342,1.018
			c-1.765-5.254-3.712-10.446-5.853-15.564c-3.662-8.559-7.823-16.912-12.551-24.934c-4.728-8.021-9.931-15.736-15.592-23.127
			c-5.924-7.607-12.293-14.868-19.143-21.657c-6.524-6.464-13.416-12.525-20.658-18.169c-7.673-5.88-15.696-11.307-24.066-16.146
			c-7.984-4.617-16.229-8.746-24.71-12.37c-8.943-3.733-18.111-6.913-27.461-9.46c-9.553-2.603-19.251-4.57-29.054-5.936
			c-4.84-0.634-9.7-1.134-14.573-1.448c-4.955-0.32-9.932-0.587-14.9-0.561c-9.881,0.055-19.749,0.729-29.546,2.007
			c-2.487,0.345-4.968,0.73-7.443,1.153c0.064,0.365,0.058,0.743-0.04,1.107h0l0,0c-0.036,0.133-0.083,0.265-0.143,0.393
			c-0.431,1.18-0.877,2.353-1.333,3.522c-0.009,0.032-0.019,0.063-0.03,0.093c-0.088,0.245-0.18,0.49-0.268,0.736
			c-0.007,0.028-0.015,0.055-0.023,0.083c0.005,0.002,0.011,0.003,0.016,0.005c-0.16,0.445-0.328,0.888-0.499,1.329
			c-0.006,0.041-0.011,0.082-0.017,0.123c-0.024,0.177-0.111,0.374-0.179,0.54c-0.156,0.393-0.312,0.786-0.469,1.177
			c-0.019,0.104-0.046,0.205-0.082,0.301c-0.208,0.562-0.428,1.12-0.655,1.675c-0.016,0.061-0.036,0.121-0.059,0.179
			c-1.32,3.297-2.662,6.581-4.093,9.832c-1.077,2.441-2.175,4.87-3.306,7.285c-0.015,0.035-0.029,0.069-0.044,0.104
			c-0.721,1.536-1.453,3.066-2.193,4.591c-0.042,0.101-0.088,0.201-0.139,0.301c-5.78,11.856-12.245,23.362-19.21,34.56
			c-7.312,11.751-15.232,23.112-23.688,34.067c0.017-0.022,0.035-0.045,0.052-0.067c-0.049,0.064-0.098,0.128-0.147,0.191
			c-0.095,0.124-0.191,0.248-0.287,0.371c0.096-0.124,0.192-0.248,0.287-0.371c0.032-0.041,0.063-0.083,0.095-0.124
			c-8.597,11.139-17.7,21.886-27.337,32.14c-9.545,10.157-19.544,19.905-30.067,29.047c-10.817,9.396-22.113,18.265-33.939,26.358
			c-5.935,4.06-11.996,7.954-18.159,11.659c-3.032,1.822-6.083,3.615-9.161,5.356c-2.38,1.347-4.789,2.635-7.203,3.918
			c-0.033,1.609-0.042,3.217-0.015,4.824c0.042,2.554,0.035,5.109,0.118,7.663c0.085,2.596,0.202,5.19,0.375,7.78
			c0.325,4.816,0.809,9.617,1.435,14.403c1.351,9.795,3.301,19.508,5.941,29.038c2.559,9.228,5.695,18.273,9.396,27.106
			c3.737,8.743,7.983,17.277,12.814,25.469c4.725,8.012,9.925,15.723,15.58,23.108c11.639,14.975,25.13,28.449,40.099,40.093
			c7.581,5.809,15.5,11.187,23.764,15.981c8.057,4.674,16.376,8.851,24.942,12.511c8.796,3.685,17.817,6.849,27.021,9.354
			c9.381,2.553,18.902,4.492,28.531,5.821c1.529,0.199,3.062,0.379,4.595,0.548C370.286,546.344,369.819,543.943,369.395,541.534z"
			/>
		<path style="fill:none;" d="M178.595,318.954c2.153-1.214,4.295-2.45,6.419-3.709c4.151-2.462,8.256-5.009,12.281-7.669
			c8.153-5.384,16.12-11.053,23.86-17.014c5.628-4.358,11.154-8.849,16.553-13.485c10.646-9.144,20.817-18.829,30.465-29.021
			c9.518-10.057,18.496-20.612,26.98-31.553c0.294-0.382,0.588-0.762,0.88-1.144c8.638-11.279,16.72-22.992,24.193-35.074
			c7.088-11.463,13.56-23.307,19.505-35.4c0.023-0.048,0.049-0.095,0.077-0.141c0.771-1.574,1.532-3.151,2.284-4.734
			c0.011-0.024,0.023-0.048,0.036-0.071c1.146-2.417,2.277-4.842,3.376-7.282c1.258-2.79,2.52-5.581,3.736-8.39
			c0.076-0.258,0.184-0.497,0.323-0.718c0.162-0.388,0.325-0.775,0.492-1.16c0.083-0.264,0.2-0.508,0.352-0.733
			c0.176-0.433,0.349-0.868,0.539-1.294c0.075-0.166,0.135-0.362,0.242-0.509c0.027-0.046,0.055-0.091,0.084-0.135
			c0.178-0.426,0.357-0.851,0.541-1.274c0.031-0.071,0.068-0.14,0.112-0.207c0.053-0.178,0.122-0.347,0.208-0.506
			c0.284-0.718,0.57-1.436,0.855-2.154c-5.296,1.041-10.556,2.265-15.76,3.699c-9.272,2.554-18.36,5.688-27.233,9.391
			c-17.276,7.37-33.547,16.913-48.459,28.327c-7.452,5.787-14.577,12.005-21.25,18.68c-6.719,6.726-13.012,13.853-18.852,21.356
			c-0.497,0.647-0.991,1.295-1.483,1.946c-0.264,0.447-0.62,0.803-1.067,1.067c-0.236,0.099-0.472,0.2-0.709,0.299
			c-0.064,0.018-0.128,0.033-0.193,0.046c-4.322,5.974-8.361,12.151-12.057,18.533c-4.675,8.07-8.83,16.416-12.475,25.002
			c-3.776,9.056-7.008,18.347-9.56,27.822c-2.532,9.397-4.466,18.932-5.797,28.572c-0.663,5.068-1.179,10.154-1.493,15.256
			c-0.096,1.556-0.183,3.114-0.255,4.674C177.096,319.814,177.842,319.379,178.595,318.954z"/>
		<path style="fill:none;" d="M602.581,262.987c0.033,0.005,0.066,0.009,0.099,0.014c0.017,0.003,0.034,0.004,0.051,0.006
			C602.681,263.001,602.632,262.994,602.581,262.987z"/>
		<path style="fill:none;" d="M607.627,272.393c-0.857-3.084-1.785-6.146-2.769-9.19c-0.175-0.023-0.349-0.046-0.524-0.068
			c-0.205,0.05-0.412,0.035-0.643,0.004c-0.3-0.042-0.601-0.082-0.903-0.123c-0.035-0.005-0.071-0.009-0.108-0.014
			c-1.032-0.135-2.066-0.266-3.101-0.384c-1.112-0.127-2.229-0.212-3.343-0.325c-2.052-0.208-4.109-0.38-6.168-0.523
			c-4.333-0.302-8.669-0.488-13.015-0.497c-8.536-0.016-17.058,0.492-25.52,1.609c-16.316,2.248-32.279,6.71-47.467,13.062
			c-7.981,3.388-15.747,7.279-23.213,11.694c-7.219,4.27-14.167,8.984-20.822,14.092c-14.625,11.349-27.734,24.61-39.082,39.23
			c-6.251,8.133-11.991,16.656-17.141,25.532c-5.196,8.965-9.823,18.242-13.873,27.782c-4.333,10.336-8.004,20.951-10.93,31.771
			c-2.884,10.667-5.08,21.505-6.576,32.454c-1.59,12.004-2.446,24.12-2.438,36.231c0.01,11.884,0.797,23.75,2.351,35.531
			c0.822,6.02,1.835,12.014,3.077,17.961c0.07,0.334,0.147,0.667,0.218,1.001c6.891,0.618,13.809,0.934,20.725,0.893
			c9.712-0.057,19.399-0.717,29.03-1.972c9.898-1.372,19.716-3.356,29.344-6.041c9.132-2.549,18.085-5.66,26.833-9.317
			c8.924-3.814,17.623-8.169,25.974-13.118c7.887-4.674,15.48-9.806,22.751-15.39c7.412-5.784,14.497-11.997,21.128-18.664
			c6.536-6.572,12.66-13.522,18.358-20.83c5.833-7.604,11.224-15.555,16.042-23.844c4.72-8.119,8.936-16.51,12.63-25.147
			c3.645-8.71,6.777-17.636,9.271-26.745c2.578-9.417,4.516-18.984,5.857-28.653c1.288-9.894,1.954-19.861,1.933-29.84
			c-0.019-9.643-0.647-19.266-1.874-28.831C612.276,291.83,610.302,282.016,607.627,272.393z"/>
		<path style="fill:none;" d="M602.751,263.01c0.012,0.002,0.024,0.004,0.036,0.005c0.04,0.005,0.08,0.01,0.118,0.016
			C602.856,263.024,602.803,263.017,602.751,263.01z"/>
		<path style="fill:#2C2C2C;" d="M622.066,306.546c-1.487-14.241-4.302-28.316-8.433-42.025
			c-4.02-13.332-9.394-26.274-15.794-38.637c-12.989-25.093-30.776-47.668-51.999-66.307c-5.216-4.58-10.671-8.888-16.27-12.99
			c-5.726-4.197-11.677-8.086-17.777-11.717c-11.969-7.123-24.646-13.035-37.708-17.851c-13.364-4.929-27.237-8.494-41.304-10.704
			c-7.134-1.121-14.319-1.897-21.524-2.358c-4.331-0.275-8.673-0.387-13.015-0.387c-2.941,0-5.881,0.051-8.819,0.137
			c-14.356,0.417-28.675,2.33-42.684,5.485c-13.704,3.087-27.033,7.623-39.914,13.207c-9.062,3.926-17.843,8.491-26.309,13.576
			c-8.612,5.174-16.821,10.985-24.683,17.236c-7.646,6.081-14.851,12.707-21.634,19.735c-6.975,7.226-13.406,14.959-19.379,23.029
			c-0.354,0.476-0.456,1.183-0.391,1.803c-5.125,6.949-9.857,14.188-14.168,21.666c-6.856,11.887-12.584,24.422-17.17,37.351
			c-4.703,13.265-8.053,26.992-10.136,40.906c-1.056,7.061-1.767,14.168-2.165,21.295c-0.189,3.391-0.242,6.781-0.33,10.174
			c-0.096,3.65,0.024,7.311,0.17,10.957c0.579,14.375,2.566,28.705,5.831,42.713c3.233,13.876,7.921,27.381,13.706,40.394
			c5.773,12.988,12.876,25.383,21.01,37.034c7.898,11.312,16.845,21.891,26.646,31.597c10.082,9.985,21.194,18.953,32.956,26.881
			c23.517,15.848,50.135,27.075,77.822,33.137c7.826,1.714,15.749,2.996,23.716,3.864c0.055,0.235,0.108,0.471,0.164,0.706
			c0.679-0.072,1.358-0.119,2.043-0.156c0.156-0.007,0.314-0.012,0.473-0.012c0.764,0,1.538,0.09,2.295,0.213
			c-0.022-0.09-0.042-0.18-0.063-0.27c4.598,0.402,9.207,0.67,13.819,0.802c14.436,0.412,28.868-0.657,43.116-2.973
			c28.283-4.594,55.585-14.936,80.054-29.799c12.002-7.29,23.298-15.777,33.766-25.131c5.323-4.757,10.391-9.795,15.235-15.037
			c4.875-5.273,9.444-10.808,13.819-16.501c17.295-22.508,30.053-48.433,37.782-75.723c3.902-13.779,6.4-27.935,7.667-42.192
			C623.762,335.329,623.562,320.862,622.066,306.546z M178.096,300.317c1.331-9.64,3.265-19.175,5.797-28.572
			c2.551-9.476,5.784-18.766,9.56-27.822c3.645-8.586,7.8-16.932,12.475-25.002c3.696-6.382,7.735-12.559,12.057-18.533
			c0.065-0.013,0.129-0.029,0.193-0.046c0.236-0.099,0.473-0.2,0.709-0.299c0.447-0.264,0.803-0.62,1.067-1.067
			c0.492-0.651,0.986-1.299,1.483-1.946c5.84-7.503,12.133-14.629,18.852-21.356c6.673-6.676,13.797-12.893,21.25-18.68
			c14.912-11.414,31.183-20.957,48.459-28.327c8.872-3.703,17.961-6.837,27.233-9.391c5.204-1.434,10.464-2.658,15.76-3.699
			c-0.285,0.718-0.571,1.436-0.855,2.154c-0.086,0.159-0.155,0.328-0.208,0.506c-0.043,0.067-0.081,0.136-0.112,0.207
			c-0.184,0.423-0.363,0.848-0.541,1.274c-0.029,0.044-0.057,0.089-0.084,0.135c-0.107,0.147-0.168,0.343-0.242,0.509
			c-0.191,0.426-0.364,0.861-0.539,1.294c-0.152,0.225-0.269,0.469-0.352,0.733c-0.167,0.385-0.331,0.773-0.492,1.16
			c-0.139,0.221-0.247,0.46-0.323,0.718c-1.217,2.808-2.479,5.6-3.736,8.39c-1.099,2.439-2.231,4.864-3.376,7.282
			c-0.012,0.023-0.024,0.047-0.036,0.071c-0.753,1.583-1.513,3.161-2.284,4.734c-0.028,0.046-0.053,0.093-0.077,0.141
			c-5.945,12.094-12.417,23.937-19.505,35.4c-7.472,12.082-15.555,23.795-24.193,35.074c-0.292,0.382-0.586,0.763-0.88,1.144
			c-8.484,10.941-17.463,21.496-26.98,31.553c-9.647,10.191-19.818,19.877-30.465,29.021c-5.399,4.636-10.925,9.127-16.553,13.485
			c-7.74,5.961-15.707,11.631-23.86,17.014c-4.025,2.66-8.131,5.207-12.281,7.669c-2.125,1.26-4.267,2.495-6.419,3.709
			c-0.753,0.424-1.499,0.859-2.247,1.293c0.072-1.56,0.159-3.118,0.255-4.674C176.917,310.471,177.433,305.385,178.096,300.317z
			 M337.655,542.369c-9.203-2.505-18.225-5.669-27.021-9.354c-8.566-3.66-16.885-7.836-24.942-12.511
			c-8.264-4.794-16.182-10.172-23.764-15.981c-14.968-11.644-28.459-25.118-40.099-40.093c-5.656-7.385-10.856-15.096-15.58-23.108
			c-4.832-8.192-9.077-16.726-12.814-25.469c-3.701-8.832-6.838-17.878-9.396-27.106c-2.639-9.53-4.59-19.243-5.941-29.038
			c-0.626-4.786-1.109-9.587-1.435-14.403c-0.174-2.59-0.29-5.184-0.375-7.78c-0.083-2.554-0.076-5.11-0.118-7.663
			c-0.027-1.607-0.018-3.215,0.015-4.824c2.414-1.283,4.824-2.571,7.203-3.918c3.079-1.741,6.13-3.534,9.161-5.356
			c6.162-3.706,12.224-7.599,18.159-11.659c11.826-8.093,23.123-16.962,33.939-26.358c10.523-9.142,20.522-18.89,30.067-29.047
			c9.637-10.254,18.74-21.002,27.337-32.14c8.456-10.956,16.376-22.316,23.688-34.067c6.965-11.197,13.43-22.704,19.21-34.56
			c0.05-0.1,0.097-0.2,0.139-0.301c0.74-1.525,1.472-3.055,2.193-4.591c0.015-0.035,0.029-0.069,0.044-0.104
			c1.131-2.415,2.228-4.844,3.306-7.285c1.432-3.251,2.773-6.534,4.093-9.832c0.023-0.058,0.043-0.118,0.059-0.179
			c0.227-0.555,0.447-1.113,0.655-1.675c0.036-0.097,0.063-0.198,0.082-0.301c0.157-0.391,0.313-0.784,0.469-1.177
			c0.068-0.167,0.155-0.363,0.179-0.54c0.006-0.041,0.011-0.082,0.017-0.123c0.171-0.441,0.339-0.884,0.499-1.329
			c-0.005-0.002-0.011-0.003-0.016-0.005c0.008-0.028,0.016-0.055,0.023-0.083c0.088-0.246,0.18-0.491,0.268-0.736
			c0.011-0.031,0.021-0.062,0.03-0.093c0.456-1.169,0.901-2.342,1.333-3.522c0.06-0.128,0.107-0.259,0.143-0.393l0,0h0
			c0.098-0.364,0.104-0.741,0.04-1.107c2.475-0.424,4.956-0.809,7.443-1.153c9.797-1.279,19.665-1.953,29.546-2.007
			c4.967-0.026,9.945,0.242,14.9,0.561c4.873,0.314,9.732,0.813,14.573,1.448c9.804,1.366,19.502,3.332,29.054,5.936
			c9.35,2.547,18.518,5.727,27.461,9.46c8.481,3.624,16.726,7.753,24.71,12.37c8.37,4.84,16.393,10.266,24.066,16.146
			c7.242,5.644,14.135,11.705,20.658,18.169c6.85,6.789,13.219,14.05,19.143,21.657c5.661,7.391,10.864,15.106,15.592,23.127
			c4.728,8.022,8.889,16.375,12.551,24.934c2.14,5.118,4.088,10.31,5.853,15.564c-2.111-0.361-4.228-0.68-6.342-1.018
			c-1.044-0.167-2.104-0.267-3.153-0.391c-1.308-0.151-2.617-0.295-3.928-0.417c-4.706-0.438-9.437-0.653-14.163-0.719
			c-0.742-0.01-1.487-0.016-2.229-0.016c-8.635,0-17.257,0.679-25.808,1.859c-9.54,1.315-18.963,3.379-28.182,6.163
			c-9.34,2.82-18.433,6.425-27.231,10.631c-17.455,8.346-33.59,19.389-48.033,32.238c-14.33,12.747-26.839,27.483-37.525,43.389
			c-10.815,16.095-19.524,33.582-26.234,51.763c-6.673,18.076-11.15,36.902-13.715,55.987c-2.417,17.98-2.828,36.224-1.512,54.312
			c0.659,9.046,1.826,18.053,3.396,26.985c0.424,2.409,0.89,4.81,1.385,7.204c-1.533-0.17-3.065-0.349-4.595-0.548
			C356.556,546.861,347.035,544.922,337.655,542.369z M613.581,360.395c-1.341,9.67-3.279,19.236-5.857,28.653
			c-2.495,9.109-5.626,18.035-9.271,26.745c-3.694,8.636-7.909,17.027-12.63,25.147c-4.818,8.289-10.209,16.24-16.042,23.844
			c-5.698,7.308-11.822,14.259-18.358,20.83c-6.631,6.667-13.716,12.88-21.128,18.664c-7.271,5.584-14.863,10.716-22.751,15.39
			c-8.35,4.948-17.05,9.304-25.974,13.118c-8.748,3.656-17.701,6.768-26.833,9.317c-9.628,2.685-19.446,4.669-29.344,6.041
			c-9.631,1.255-19.318,1.915-29.03,1.972c-6.916,0.041-13.834-0.275-20.725-0.893c-0.071-0.334-0.148-0.667-0.218-1.001
			c-1.242-5.947-2.255-11.941-3.077-17.961c-1.553-11.781-2.34-23.647-2.351-35.531c-0.009-12.111,0.848-24.228,2.438-36.231
			c1.496-10.949,3.692-21.786,6.576-32.454c2.926-10.82,6.597-21.436,10.93-31.771c4.05-9.54,8.676-18.817,13.873-27.782
			c5.15-8.876,10.89-17.4,17.141-25.532c11.348-14.62,24.457-27.881,39.082-39.23c6.656-5.108,13.604-9.821,20.822-14.092
			c7.465-4.415,15.231-8.306,23.213-11.694c15.188-6.352,31.151-10.813,47.467-13.062c8.463-1.117,16.984-1.624,25.52-1.609
			c4.345,0.009,8.682,0.194,13.015,0.497c2.059,0.143,4.116,0.315,6.168,0.523c1.114,0.113,2.231,0.198,3.343,0.325
			c1.036,0.118,2.069,0.248,3.101,0.384c-0.033-0.005-0.066-0.009-0.099-0.014c0.051,0.006,0.1,0.014,0.15,0.02
			c-0.017-0.002-0.034-0.004-0.051-0.006c0.036,0.005,0.073,0.009,0.108,0.014c-0.012-0.002-0.024-0.003-0.036-0.005
			c0.052,0.007,0.104,0.014,0.155,0.021c-0.038-0.005-0.078-0.01-0.118-0.016c0.302,0.042,0.603,0.082,0.903,0.123
			c0.231,0.031,0.438,0.047,0.643-0.004c0.175,0.022,0.349,0.045,0.524,0.068c0.984,3.043,1.912,6.105,2.769,9.19
			c2.675,9.624,4.649,19.438,6.013,29.331c1.228,9.564,1.855,19.188,1.874,28.831C615.535,340.534,614.869,350.501,613.581,360.395z
			"/>
		<path style="fill:none;stroke:#2C2C2C;stroke-width:0;stroke-linecap:round;stroke-linejoin:round;" d="M301.957,216.685
			c-0.095,0.124-0.191,0.248-0.287,0.371"/>
		<path style="fill:#2C2C2C;" d="M302.104,216.493c-0.017,0.023-0.035,0.045-0.052,0.067c-0.032,0.041-0.063,0.083-0.095,0.124
			C302.006,216.621,302.055,216.557,302.104,216.493z"/>
	</g>
</g>
</svg>
